<svg version="1.1" id="Layer_1" xmlns="http://www.w3.org/2000/svg" xmlns:xlink="http://www.w3.org/1999/xlink" x="0px" y="0px"
	 width="100%" viewBox="0 0 1254 1254" enable-background="new 0 0 1254 1254" xml:space="preserve">
<path fill="#000000" opacity="1.000000" stroke="none" 
	d="
M570.000000,1255.000000 
	C380.000000,1255.000000 190.500000,1255.000000 1.000000,1255.000000 
	C1.000000,837.000000 1.000000,419.000000 1.000000,1.000000 
	C419.000000,1.000000 837.000000,1.000000 1255.000000,1.000000 
	C1255.000000,419.000000 1255.000000,837.000000 1255.000000,1255.000000 
	C1026.833374,1255.000000 798.666687,1255.000000 570.000000,1255.000000 
M961.480286,848.310364 
	C965.005981,849.343872 963.877930,846.351501 963.913452,845.094421 
	C964.096313,838.623230 963.999756,832.144104 963.999817,825.667786 
	C963.999939,805.076355 964.015930,784.484802 963.975647,763.893494 
	C963.971375,761.734497 964.764526,758.849365 960.622620,758.565735 
	C955.384338,747.355286 941.552551,743.094910 931.142517,749.808228 
	C928.353088,751.607056 926.313477,754.568665 923.155273,757.118469 
	C922.436829,759.111633 921.103271,761.101624 921.092834,763.098572 
	C920.953125,789.822144 920.996460,816.546692 921.002930,843.270996 
	C921.003235,844.596924 920.881470,845.984802 921.257446,847.208252 
	C921.360352,847.542969 923.068115,847.384460 924.279053,848.201843 
	C927.349731,856.212891 932.213745,859.886414 939.881226,859.985413 
	C953.164185,860.156921 956.707825,858.142639 961.480286,848.310364 
M635.066406,592.250977 
	C634.921448,592.047424 634.776428,591.843933 634.830872,590.979248 
	C646.674072,570.599548 662.389832,554.064941 684.208191,544.601196 
	C696.199402,539.399902 708.924927,535.797241 721.491211,532.050110 
	C729.505493,529.660339 733.713135,524.768250 732.886658,516.404175 
	C697.282043,521.045044 665.374878,533.597473 640.834717,560.662537 
	C611.412781,593.111572 604.337585,632.823120 605.893677,674.938293 
	C606.039368,678.881653 608.325012,682.669250 612.215759,682.942627 
	C620.991638,683.559082 629.840576,683.136230 639.626709,683.136230 
	C633.029297,675.411011 627.092041,668.670959 621.448792,661.693115 
	C620.134521,660.068054 619.028870,657.574219 619.180420,655.583008 
	C619.897949,646.151672 621.061523,636.753418 622.110474,627.348328 
	C623.079468,618.659424 627.016357,612.310181 635.495117,608.778198 
	C641.602539,606.234009 647.139404,602.332092 653.224670,599.720581 
	C681.809021,587.453552 709.602722,586.474609 735.879272,605.990173 
	C741.157349,609.910217 745.778564,608.275635 750.398254,601.390259 
	C730.099609,581.826050 705.991760,574.353394 678.153320,578.334167 
	C662.982910,580.503479 649.066284,586.291321 635.066406,592.250977 
M776.232605,561.240112 
	C789.883118,565.609985 796.458130,574.647461 795.842285,588.752258 
	C795.587524,594.586121 797.726257,598.821045 802.828979,601.445740 
	C810.370239,605.324829 817.930115,609.180359 825.607300,612.778687 
	C831.617188,615.595642 836.831848,614.200806 841.143250,608.918274 
	C861.470764,584.012024 881.719543,559.041382 902.151917,534.221680 
	C903.513123,532.568176 906.081665,531.234985 908.224731,531.001465 
	C933.345337,528.264648 954.991882,518.322998 972.780823,500.300964 
	C979.401245,493.593750 983.434814,485.397003 986.272156,475.656281 
	C964.497192,483.154480 943.087769,488.137604 920.254883,486.902069 
	C920.907959,475.584564 921.577148,464.629181 922.160645,453.669220 
	C922.617188,445.093933 920.191895,441.157928 912.503906,437.542603 
	C849.622070,407.971893 786.711914,378.461182 723.894165,348.755005 
	C712.916931,343.563934 702.608215,344.417114 692.464844,350.349182 
	C672.499390,362.025360 652.589966,373.797760 632.687927,385.582031 
	C571.118347,422.038483 509.565521,458.523132 447.998474,494.983826 
	C442.485046,498.248962 436.915863,501.419891 430.625488,505.067810 
	C432.813873,498.753601 434.808960,493.368713 436.551392,487.903320 
	C443.000397,467.674774 446.476440,447.130493 442.071411,425.962677 
	C439.924438,415.645630 435.860840,406.238739 427.421143,398.977020 
	C426.521393,403.544250 425.984955,407.695465 424.869537,411.684814 
	C419.716766,430.114014 413.254181,447.672882 393.873108,456.293915 
	C392.812561,456.765686 392.140594,458.467957 391.619202,459.733917 
	C389.183868,465.647217 392.536926,470.780884 394.154327,476.064850 
	C396.747131,484.535309 399.738831,492.883698 402.561951,501.283661 
	C402.985352,501.223541 403.408752,501.163422 403.832153,501.103302 
	C403.832153,490.715424 403.774811,480.326843 403.897461,469.940399 
	C403.914703,468.477631 404.369934,466.265869 405.369141,465.684784 
	C416.158325,459.410309 423.758972,450.273132 429.818817,438.178253 
	C431.999878,469.330322 421.455994,495.781250 408.022797,521.368896 
	C416.148254,527.945190 417.352875,528.076782 425.669983,523.259521 
	C431.194519,520.059631 436.694672,516.817627 442.949310,513.159607 
	C443.754639,540.867188 438.540039,565.248474 418.740326,584.636414 
	C415.292206,588.012756 411.289856,590.852539 408.054932,594.405823 
	C406.164734,596.482056 404.164001,599.466797 404.131012,602.067200 
	C403.830597,625.729065 403.883270,649.396729 404.009857,673.061768 
	C404.035217,677.798401 407.889526,682.996704 411.540833,683.134399 
	C419.721130,683.442749 427.921082,683.230957 437.006226,683.230957 
	C430.857086,675.615295 425.315552,668.976624 420.078674,662.105652 
	C418.798126,660.425537 417.899902,657.992737 417.872864,655.892517 
	C417.684021,641.228943 418.088165,626.551331 417.610962,611.900818 
	C417.422302,606.109497 419.200378,602.346802 423.649689,598.839844 
	C434.035248,590.653809 441.463196,580.072449 446.923767,568.071289 
	C455.347717,549.556946 457.612213,530.076599 455.788818,510.030334 
	C455.514465,507.013855 456.352020,505.608734 458.841980,504.160614 
	C473.524414,495.621674 488.087646,486.878174 502.723663,478.258881 
	C561.633728,443.566223 620.551575,408.886841 679.478333,374.222565 
	C687.152283,369.708344 694.894714,365.310699 703.190613,360.521179 
	C708.604797,437.419556 682.399597,495.915802 609.845764,528.431458 
	C615.538940,536.049072 619.383118,537.485107 625.529480,534.757019 
	C653.457764,522.360840 675.541870,503.113861 691.679260,477.266418 
	C712.077942,444.593323 718.847046,408.580902 716.720886,370.549774 
	C716.555054,367.583160 716.409668,364.615387 716.219666,360.976288 
	C718.469116,361.898163 720.151428,362.506378 721.765320,363.261047 
	C757.614990,380.024048 793.460205,396.796448 829.299438,413.581604 
	C854.739441,425.496277 880.178467,437.413361 905.578552,449.412476 
	C906.903320,450.038269 908.864868,451.475250 908.833435,452.481415 
	C908.492310,463.360168 907.810730,474.228271 907.184875,485.790924 
	C898.188232,483.245331 890.085999,480.952820 881.952454,478.651428 
	C880.778137,487.998596 883.914185,492.963623 892.324829,495.406555 
	C910.894287,500.800140 929.746338,501.246796 948.782837,498.695587 
	C950.350830,498.485443 951.971436,498.667877 953.567627,498.667877 
	C941.001770,508.612610 927.320007,515.533813 911.800171,517.071655 
	C901.289062,518.113159 890.568848,517.432434 879.965698,516.975159 
	C875.375854,516.777161 872.027771,517.952576 870.061646,521.951904 
	C867.931641,526.284790 869.122253,528.394653 873.843079,529.250610 
	C878.040894,530.011658 882.269043,530.604919 886.698425,531.306213 
	C886.383423,532.075073 886.301392,532.564697 886.028870,532.899048 
	C868.245544,554.720947 850.475708,576.554199 832.549438,598.258179 
	C831.794373,599.172302 829.303955,599.530151 828.081116,599.028320 
	C822.860901,596.886169 817.853760,594.231628 812.685608,591.953003 
	C810.131287,590.826782 809.092224,589.455627 809.054810,586.383850 
	C808.892883,573.097595 803.676636,562.210815 792.632263,554.411743 
	C774.738098,541.775513 745.501648,545.023193 729.565002,561.583130 
	C730.632568,562.580200 731.681274,563.604980 732.777832,564.575623 
	C736.551941,567.916504 740.152100,569.186768 745.124390,565.993408 
	C749.203491,563.373657 754.230957,562.230469 759.298157,560.253296 
	C765.631470,575.740234 771.769165,590.622681 777.715088,605.581299 
	C778.097839,606.544128 777.375183,608.463989 776.535339,609.316772 
	C765.425842,620.595947 754.141724,631.703369 743.063660,643.012939 
	C741.002197,645.117493 739.410278,645.079163 737.037048,643.828979 
	C731.598633,640.964294 726.110962,638.166321 720.499207,635.664429 
	C714.071411,632.798767 707.933350,635.503967 705.046753,642.506653 
	C715.186646,647.676392 725.332642,652.936584 735.562073,658.029236 
	C740.957581,660.715393 745.339600,659.876404 749.614014,655.575989 
	C762.417114,642.694885 775.150330,629.744263 787.980652,616.890564 
	C792.231323,612.632141 793.237671,608.098389 790.878906,602.393555 
	C785.360718,589.047424 780.179749,575.561890 775.206604,561.708679 
	C775.296875,561.550537 775.387085,561.392334 776.232605,561.240112 
M1037.825073,786.572388 
	C1035.683228,776.828552 1033.605835,767.069885 1031.380127,757.345215 
	C1029.395020,748.671143 1026.886841,747.164429 1018.106934,749.006592 
	C1018.106934,785.574585 1018.106934,822.136230 1018.106934,858.579407 
	C1021.863647,858.579407 1025.281128,858.579407 1029.002808,858.579407 
	C1029.002808,840.017151 1029.002808,821.788147 1029.002808,803.559143 
	C1030.063477,804.648499 1030.545776,805.832031 1030.827637,807.061523 
	C1034.169434,821.635620 1037.442017,836.225647 1040.817261,850.791931 
	C1042.567139,858.343567 1045.709229,860.095825 1053.514160,858.077698 
	C1053.514160,821.699646 1053.514160,785.305054 1053.514160,748.748657 
	C1049.770508,748.748657 1046.367432,748.748657 1042.478271,748.748657 
	C1042.478271,767.390198 1042.478271,785.730286 1042.478271,804.070435 
	C1042.108276,804.113098 1041.738403,804.155762 1041.368408,804.198425 
	C1040.227417,798.601929 1039.086426,793.005371 1037.825073,786.572388 
M604.898499,752.782593 
	C604.781189,751.386902 604.663818,749.991211 604.565857,748.825745 
	C600.599243,748.825745 597.198364,748.825745 593.240723,748.825745 
	C593.240723,767.152039 593.240723,785.082703 593.240723,803.013306 
	C592.121338,802.533997 591.954834,801.974915 591.834290,801.406128 
	C588.799988,787.091675 585.821045,772.765198 582.722656,758.464600 
	C580.616943,748.745667 578.489868,747.321655 569.166626,748.921814 
	C569.166626,785.477539 569.166626,822.028625 569.166626,858.497681 
	C572.960205,858.497681 576.353210,858.497681 580.041748,858.497681 
	C580.041748,839.856506 580.041748,821.596619 580.041748,801.901306 
	C581.013306,803.848267 581.501160,804.485046 581.660522,805.195557 
	C585.043091,820.275146 588.368835,835.367493 591.749573,850.447449 
	C593.525635,858.369568 596.527649,860.143616 604.903625,858.037231 
	C604.903625,823.332275 604.903625,788.529602 604.898499,752.782593 
M696.205688,816.158691 
	C696.544678,811.323486 695.775208,806.926086 691.070190,804.272949 
	C695.909485,799.460205 696.173584,798.838684 696.183350,792.138428 
	C696.197449,782.480896 696.267700,772.822571 696.170105,763.166016 
	C696.100830,756.314941 692.116638,750.192383 685.484192,749.351990 
	C677.736389,748.370300 669.768860,749.122620 661.907104,749.122620 
	C661.907104,785.664246 661.907104,822.078125 661.907104,858.859924 
	C669.172485,858.859924 676.169800,859.258789 683.101929,858.756958 
	C691.394531,858.156799 696.142151,852.462219 696.195068,844.001648 
	C696.251282,835.010498 696.209595,826.018799 696.205688,816.158691 
M408.005371,781.277161 
	C406.108948,792.924622 404.212555,804.572083 402.316162,816.219482 
	C398.171783,796.570801 395.115204,777.023499 392.064789,757.475342 
	C390.598633,748.079773 389.331482,747.207520 379.267792,748.944458 
	C379.837921,752.348633 380.438568,755.754272 380.975677,759.169983 
	C385.732330,789.421570 390.451721,819.679138 395.243988,849.925110 
	C396.516510,857.956299 399.131042,859.691772 407.389374,858.141907 
	C413.045959,821.805603 418.717194,785.375366 424.437561,748.629150 
	C423.029846,748.528320 422.065186,748.417114 421.098572,748.396606 
	C412.971649,748.223938 413.044220,748.239624 411.878571,756.230530 
	C410.701630,764.299377 409.360321,772.344238 408.005371,781.277161 
M225.834900,858.657593 
	C230.848862,856.199890 233.759705,852.385193 234.264893,846.644043 
	C235.556610,831.964172 233.247345,818.206787 224.819061,805.759155 
	C222.405487,802.194641 220.551117,798.253174 218.410889,794.501404 
	C213.299866,785.541626 209.783310,776.234131 210.945557,765.590332 
	C211.371674,761.687866 212.156540,758.558228 216.738998,758.468201 
	C221.317978,758.378174 222.687881,761.420776 222.754868,765.369629 
	C222.818954,769.147217 222.768707,772.926758 222.768707,776.904968 
	C234.223511,772.894226 234.691467,772.237366 234.144806,761.612305 
	C233.729462,753.539734 228.004791,747.941772 219.591293,747.380920 
	C208.246628,746.624634 201.283173,750.497192 199.968292,759.077087 
	C198.415680,769.208435 198.415833,779.395386 203.194305,788.864380 
	C207.607315,797.609314 211.950104,806.430054 217.036469,814.783447 
	C222.244476,823.336548 223.464172,832.418335 222.906509,842.057556 
	C222.678818,845.993408 221.391144,849.043640 216.863678,849.000305 
	C212.318939,848.956909 211.039246,845.955750 211.075180,841.938049 
	C211.126373,836.215149 211.088196,830.491455 211.088196,824.120239 
	C205.881485,826.846558 199.871567,827.349182 199.387131,833.965515 
	C199.072556,838.262085 199.139832,842.651550 199.640228,846.928711 
	C200.543335,854.647949 206.452545,859.880676 214.213013,859.946472 
	C217.839035,859.977234 221.470978,859.310486 225.834900,858.657593 
M848.499695,788.828369 
	C843.712402,781.287964 843.099731,772.895996 843.631958,764.317932 
	C843.856750,760.694946 845.781311,758.264771 849.640015,758.385254 
	C853.534729,758.506836 855.117493,761.010803 855.101135,764.723267 
	C855.083618,768.684814 855.097168,772.646545 855.097168,776.687866 
	C865.682861,774.021790 867.503174,771.769470 867.077515,762.190125 
	C866.718811,754.117493 861.567932,748.603027 853.437866,747.587646 
	C842.021729,746.161865 834.482788,749.636475 832.980530,758.476135 
	C831.834534,765.219238 831.058655,772.847229 833.084290,779.124390 
	C836.562317,789.902344 841.732300,800.287170 847.351501,810.178284 
	C852.966187,820.061218 856.243774,830.047119 855.194397,841.451477 
	C854.825134,845.463806 854.303589,848.953796 849.384155,849.067749 
	C844.369202,849.183838 843.486572,845.646667 843.463135,841.639221 
	C843.430481,836.059387 843.454895,830.479248 843.454895,824.602844 
	C832.055664,829.018494 831.890198,829.257751 831.951599,840.376404 
	C831.959900,841.874634 831.926208,843.374878 831.990784,844.870728 
	C832.325256,852.613708 837.047852,858.337952 844.273499,859.797607 
	C853.848633,861.731750 862.715515,858.309753 865.860840,851.392029 
	C866.404419,850.196472 866.887024,848.865845 866.949890,847.575745 
	C867.577332,834.706787 867.470642,822.028931 860.337585,810.441040 
	C856.168518,803.668213 852.696838,796.466187 848.499695,788.828369 
M297.391937,749.938660 
	C297.174164,751.562378 296.768158,753.185852 296.766418,754.809753 
	C296.730316,788.297791 296.736938,821.785767 296.755249,855.273804 
	C296.755859,856.392090 296.966644,857.510315 297.097382,858.805847 
	C304.647675,858.805847 311.964874,858.810669 319.282104,858.804626 
	C327.763123,858.797607 330.471039,856.155396 331.084229,846.828430 
	C323.507141,846.828430 315.954132,846.828430 308.186737,846.828430 
	C308.186737,834.826660 308.373535,823.331787 308.087738,811.848633 
	C307.984497,807.700562 309.472900,806.378845 313.262299,806.957825 
	C319.987732,807.985413 324.195740,804.750793 324.133179,795.263489 
	C318.939423,795.263489 313.722687,795.263489 308.222137,795.263489 
	C308.222137,786.612305 308.223969,778.624268 308.221680,770.636230 
	C308.218658,759.976746 308.217285,759.976685 319.024841,759.908752 
	C326.588837,759.861145 329.664032,756.495239 329.104492,748.352844 
	C323.003723,748.352844 316.860077,748.234375 310.723663,748.393616 
	C306.459167,748.504272 302.204620,748.996704 297.391937,749.938660 
M519.708740,539.378906 
	C521.161499,534.436401 522.878540,529.553528 524.010010,524.538513 
	C526.125793,515.160461 524.498840,511.824799 515.785645,506.503174 
	C515.276001,508.475128 514.791138,510.376740 514.292358,512.274658 
	C513.742615,514.366882 513.215515,516.465881 512.617920,518.544495 
	C499.937836,562.650574 472.856689,591.790649 426.711426,600.991821 
	C423.342255,601.663635 422.148376,603.699524 423.527496,606.182129 
	C424.828827,608.524658 427.378387,611.602661 429.553223,611.747986 
	C434.877960,612.103699 440.666046,611.986023 445.630035,610.242981 
	C480.648193,597.946350 505.520233,574.727112 519.708740,539.378906 
M495.523071,748.353638 
	C493.023743,748.343750 490.524231,748.309570 488.025116,748.328735 
	C481.230957,748.380737 480.883728,748.745544 480.885925,755.337708 
	C480.896698,787.494568 480.898956,819.651428 480.904114,851.808289 
	C480.904480,854.069275 480.904144,856.330261 480.904144,858.861023 
	C488.728424,858.861023 495.881256,858.851562 503.034027,858.863525 
	C511.538300,858.877808 514.287170,856.233459 514.986267,847.018799 
	C507.515015,847.018799 500.061188,847.018799 492.313873,847.018799 
	C492.313873,835.064636 492.442993,823.440247 492.239777,811.821655 
	C492.173767,808.046082 493.525024,806.940796 497.155579,806.919678 
	C505.362152,806.871948 507.602936,804.392334 508.021545,795.165649 
	C502.811676,795.165649 497.611328,795.165649 492.251129,795.165649 
	C492.251129,786.222961 492.226654,777.897095 492.257507,769.571289 
	C492.293579,759.844299 492.314514,759.844299 502.038971,759.898865 
	C510.153198,759.944397 512.832581,757.356018 513.334229,748.365173 
	C507.718018,748.365173 502.115967,748.365173 495.523071,748.353638 
M548.910400,667.676086 
	C545.578857,665.802917 542.181335,664.035645 538.939697,662.018066 
	C536.887207,660.740784 534.644348,659.414917 533.214111,657.552368 
	C526.217468,648.441467 519.442749,639.159485 512.635803,629.903870 
	C509.098633,625.094299 503.219696,620.388306 502.857269,615.316895 
	C502.493622,610.228455 507.619843,604.715210 510.435883,599.439331 
	C515.343689,590.244446 514.334473,586.802856 504.587219,581.307678 
	C499.805420,590.987915 495.166565,600.715759 490.207489,610.277466 
	C487.681458,615.148071 487.979370,619.250916 491.319000,623.665222 
	C502.972260,639.068237 515.293152,654.071716 525.632751,670.325989 
	C532.571655,681.234253 540.690430,685.131409 552.950867,683.359192 
	C558.654236,682.534790 564.575500,683.218445 570.398010,683.218445 
	C570.582520,682.650208 570.767029,682.082031 570.951538,681.513794 
	C563.817871,677.021484 556.684204,672.529114 548.910400,667.676086 
M758.665344,768.500732 
	C758.667847,796.464478 758.745300,824.428650 758.601196,852.391663 
	C758.576233,857.229431 760.567627,859.089417 765.132324,858.875427 
	C766.738647,858.800049 768.351440,858.863403 770.455444,858.863403 
	C770.455444,854.023438 770.456970,849.719299 770.455200,845.415222 
	C770.443481,816.286438 770.427124,787.157715 770.421021,758.028931 
	C770.419128,748.923584 768.036255,747.053711 758.672119,749.156677 
	C758.672119,755.224426 758.672119,761.362854 758.665344,768.500732 
M590.977112,577.675903 
	C568.745056,573.337280 547.922363,576.883606 528.289429,588.196350 
	C533.209045,598.148499 534.856567,598.781189 544.541748,594.948242 
	C544.850708,594.825989 545.164368,594.715149 545.471802,594.589233 
	C557.096375,589.827759 569.077942,587.848877 581.592896,589.886902 
	C583.990662,590.277283 586.413940,590.511414 589.523254,590.906250 
	C590.311218,586.363037 591.035034,582.189392 590.977112,577.675903 
z"/>
<path fill="#F6F5F6" opacity="1.000000" stroke="none" 
	d="
M774.862244,562.132751 
	C780.179749,575.561890 785.360718,589.047424 790.878906,602.393555 
	C793.237671,608.098389 792.231323,612.632141 787.980652,616.890564 
	C775.150330,629.744263 762.417114,642.694885 749.614014,655.575989 
	C745.339600,659.876404 740.957581,660.715393 735.562073,658.029236 
	C725.332642,652.936584 715.186646,647.676392 705.046753,642.506653 
	C707.933350,635.503967 714.071411,632.798767 720.499207,635.664429 
	C726.110962,638.166321 731.598633,640.964294 737.037048,643.828979 
	C739.410278,645.079163 741.002197,645.117493 743.063660,643.012939 
	C754.141724,631.703369 765.425842,620.595947 776.535339,609.316772 
	C777.375183,608.463989 778.097839,606.544128 777.715088,605.581299 
	C771.769165,590.622681 765.631470,575.740234 759.298157,560.253296 
	C754.230957,562.230469 749.203491,563.373657 745.124390,565.993408 
	C740.152100,569.186768 736.551941,567.916504 732.777832,564.575623 
	C731.681274,563.604980 730.632568,562.580200 729.565002,561.583130 
	C745.501648,545.023193 774.738098,541.775513 792.632263,554.411743 
	C803.676636,562.210815 808.892883,573.097595 809.054810,586.383850 
	C809.092224,589.455627 810.131287,590.826782 812.685608,591.953003 
	C817.853760,594.231628 822.860901,596.886169 828.081116,599.028320 
	C829.303955,599.530151 831.794373,599.172302 832.549438,598.258179 
	C850.475708,576.554199 868.245544,554.720947 886.028870,532.899048 
	C886.301392,532.564697 886.383423,532.075073 886.698425,531.306213 
	C882.269043,530.604919 878.040894,530.011658 873.843079,529.250610 
	C869.122253,528.394653 867.931641,526.284790 870.061646,521.951904 
	C872.027771,517.952576 875.375854,516.777161 879.965698,516.975159 
	C890.568848,517.432434 901.289062,518.113159 911.800171,517.071655 
	C927.320007,515.533813 941.001770,508.612610 953.567627,498.667877 
	C951.971436,498.667877 950.350830,498.485443 948.782837,498.695587 
	C929.746338,501.246796 910.894287,500.800140 892.324829,495.406555 
	C883.914185,492.963623 880.778137,487.998596 881.952454,478.651428 
	C890.085999,480.952820 898.188232,483.245331 907.184875,485.790924 
	C907.810730,474.228271 908.492310,463.360168 908.833435,452.481415 
	C908.864868,451.475250 906.903320,450.038269 905.578552,449.412476 
	C880.178467,437.413361 854.739441,425.496277 829.299438,413.581604 
	C793.460205,396.796448 757.614990,380.024048 721.765320,363.261047 
	C720.151428,362.506378 718.469116,361.898163 716.219666,360.976288 
	C716.409668,364.615387 716.555054,367.583160 716.720886,370.549774 
	C718.847046,408.580902 712.077942,444.593323 691.679260,477.266418 
	C675.541870,503.113861 653.457764,522.360840 625.529480,534.757019 
	C619.383118,537.485107 615.538940,536.049072 609.845764,528.431458 
	C682.399597,495.915802 708.604797,437.419556 703.190613,360.521179 
	C694.894714,365.310699 687.152283,369.708344 679.478333,374.222565 
	C620.551575,408.886841 561.633728,443.566223 502.723663,478.258881 
	C488.087646,486.878174 473.524414,495.621674 458.841980,504.160614 
	C456.352020,505.608734 455.514465,507.013855 455.788818,510.030334 
	C457.612213,530.076599 455.347717,549.556946 446.923767,568.071289 
	C441.463196,580.072449 434.035248,590.653809 423.649689,598.839844 
	C419.200378,602.346802 417.422302,606.109497 417.610962,611.900818 
	C418.088165,626.551331 417.684021,641.228943 417.872864,655.892517 
	C417.899902,657.992737 418.798126,660.425537 420.078674,662.105652 
	C425.315552,668.976624 430.857086,675.615295 437.006226,683.230957 
	C427.921082,683.230957 419.721130,683.442749 411.540833,683.134399 
	C407.889526,682.996704 404.035217,677.798401 404.009857,673.061768 
	C403.883270,649.396729 403.830597,625.729065 404.131012,602.067200 
	C404.164001,599.466797 406.164734,596.482056 408.054932,594.405823 
	C411.289856,590.852539 415.292206,588.012756 418.740326,584.636414 
	C438.540039,565.248474 443.754639,540.867188 442.949310,513.159607 
	C436.694672,516.817627 431.194519,520.059631 425.669983,523.259521 
	C417.352875,528.076782 416.148254,527.945190 408.022797,521.368896 
	C421.455994,495.781250 431.999878,469.330322 429.818817,438.178253 
	C423.758972,450.273132 416.158325,459.410309 405.369141,465.684784 
	C404.369934,466.265869 403.914703,468.477631 403.897461,469.940399 
	C403.774811,480.326843 403.832153,490.715424 403.832153,501.103302 
	C403.408752,501.163422 402.985352,501.223541 402.561951,501.283661 
	C399.738831,492.883698 396.747131,484.535309 394.154327,476.064850 
	C392.536926,470.780884 389.183868,465.647217 391.619202,459.733917 
	C392.140594,458.467957 392.812561,456.765686 393.873108,456.293915 
	C413.254181,447.672882 419.716766,430.114014 424.869537,411.684814 
	C425.984955,407.695465 426.521393,403.544250 427.421143,398.977020 
	C435.860840,406.238739 439.924438,415.645630 442.071411,425.962677 
	C446.476440,447.130493 443.000397,467.674774 436.551392,487.903320 
	C434.808960,493.368713 432.813873,498.753601 430.625488,505.067810 
	C436.915863,501.419891 442.485046,498.248962 447.998474,494.983826 
	C509.565521,458.523132 571.118347,422.038483 632.687927,385.582031 
	C652.589966,373.797760 672.499390,362.025360 692.464844,350.349182 
	C702.608215,344.417114 712.916931,343.563934 723.894165,348.755005 
	C786.711914,378.461182 849.622070,407.971893 912.503906,437.542603 
	C920.191895,441.157928 922.617188,445.093933 922.160645,453.669220 
	C921.577148,464.629181 920.907959,475.584564 920.254883,486.902069 
	C943.087769,488.137604 964.497192,483.154480 986.272156,475.656281 
	C983.434814,485.397003 979.401245,493.593750 972.780823,500.300964 
	C954.991882,518.322998 933.345337,528.264648 908.224731,531.001465 
	C906.081665,531.234985 903.513123,532.568176 902.151917,534.221680 
	C881.719543,559.041382 861.470764,584.012024 841.143250,608.918274 
	C836.831848,614.200806 831.617188,615.595642 825.607300,612.778687 
	C817.930115,609.180359 810.370239,605.324829 802.828979,601.445740 
	C797.726257,598.821045 795.587524,594.586121 795.842285,588.752258 
	C796.458130,574.647461 789.883118,565.609985 775.617188,561.126465 
	C774.762512,561.103271 774.523315,561.193787 774.284058,561.284302 
	C774.476746,561.567139 774.669495,561.849976 774.862244,562.132751 
M954.000000,498.500000 
	C954.200012,498.633331 954.399963,498.766663 954.599976,498.899994 
	C954.566650,498.600006 954.533325,498.299988 954.000000,498.500000 
z"/>
<path fill="#F6F6F6" opacity="1.000000" stroke="none" 
	d="
M635.423767,592.910034 
	C649.066284,586.291321 662.982910,580.503479 678.153320,578.334167 
	C705.991760,574.353394 730.099609,581.826050 750.398254,601.390259 
	C745.778564,608.275635 741.157349,609.910217 735.879272,605.990173 
	C709.602722,586.474609 681.809021,587.453552 653.224670,599.720581 
	C647.139404,602.332092 641.602539,606.234009 635.495117,608.778198 
	C627.016357,612.310181 623.079468,618.659424 622.110474,627.348328 
	C621.061523,636.753418 619.897949,646.151672 619.180420,655.583008 
	C619.028870,657.574219 620.134521,660.068054 621.448792,661.693115 
	C627.092041,668.670959 633.029297,675.411011 639.626709,683.136230 
	C629.840576,683.136230 620.991638,683.559082 612.215759,682.942627 
	C608.325012,682.669250 606.039368,678.881653 605.893677,674.938293 
	C604.337585,632.823120 611.412781,593.111572 640.834717,560.662537 
	C665.374878,533.597473 697.282043,521.045044 732.886658,516.404175 
	C733.713135,524.768250 729.505493,529.660339 721.491211,532.050110 
	C708.924927,535.797241 696.199402,539.399902 684.208191,544.601196 
	C662.389832,554.064941 646.674072,570.599548 634.476562,591.523682 
	C634.556152,592.348755 634.989929,592.629395 635.423767,592.910034 
z"/>
<path fill="#F6F6F6" opacity="1.000000" stroke="none" 
	d="
M1037.885254,786.990601 
	C1039.086426,793.005371 1040.227417,798.601929 1041.368408,804.198425 
	C1041.738403,804.155762 1042.108276,804.113098 1042.478271,804.070435 
	C1042.478271,785.730286 1042.478271,767.390198 1042.478271,748.748657 
	C1046.367432,748.748657 1049.770508,748.748657 1053.514160,748.748657 
	C1053.514160,785.305054 1053.514160,821.699646 1053.514160,858.077698 
	C1045.709229,860.095825 1042.567139,858.343567 1040.817261,850.791931 
	C1037.442017,836.225647 1034.169434,821.635620 1030.827637,807.061523 
	C1030.545776,805.832031 1030.063477,804.648499 1029.002808,803.559143 
	C1029.002808,821.788147 1029.002808,840.017151 1029.002808,858.579407 
	C1025.281128,858.579407 1021.863647,858.579407 1018.106934,858.579407 
	C1018.106934,822.136230 1018.106934,785.574585 1018.106934,749.006592 
	C1026.886841,747.164429 1029.395020,748.671143 1031.380127,757.345215 
	C1033.605835,767.069885 1035.683228,776.828552 1037.885254,786.990601 
z"/>
<path fill="#F6F6F7" opacity="1.000000" stroke="none" 
	d="
M604.901062,753.254761 
	C604.903625,788.529602 604.903625,823.332275 604.903625,858.037231 
	C596.527649,860.143616 593.525635,858.369568 591.749573,850.447449 
	C588.368835,835.367493 585.043091,820.275146 581.660522,805.195557 
	C581.501160,804.485046 581.013306,803.848267 580.041748,801.901306 
	C580.041748,821.596619 580.041748,839.856506 580.041748,858.497681 
	C576.353210,858.497681 572.960205,858.497681 569.166626,858.497681 
	C569.166626,822.028625 569.166626,785.477539 569.166626,748.921814 
	C578.489868,747.321655 580.616943,748.745667 582.722656,758.464600 
	C585.821045,772.765198 588.799988,787.091675 591.834290,801.406128 
	C591.954834,801.974915 592.121338,802.533997 593.240723,803.013306 
	C593.240723,785.082703 593.240723,767.152039 593.240723,748.825745 
	C597.198364,748.825745 600.599243,748.825745 604.565857,748.825745 
	C604.663818,749.991211 604.781189,751.386902 604.901062,753.254761 
z"/>
<path fill="#F7F6F7" opacity="1.000000" stroke="none" 
	d="
M696.208130,816.593018 
	C696.209595,826.018799 696.251282,835.010498 696.195068,844.001648 
	C696.142151,852.462219 691.394531,858.156799 683.101929,858.756958 
	C676.169800,859.258789 669.172485,858.859924 661.907104,858.859924 
	C661.907104,822.078125 661.907104,785.664246 661.907104,749.122620 
	C669.768860,749.122620 677.736389,748.370300 685.484192,749.351990 
	C692.116638,750.192383 696.100830,756.314941 696.170105,763.166016 
	C696.267700,772.822571 696.197449,782.480896 696.183350,792.138428 
	C696.173584,798.838684 695.909485,799.460205 691.070190,804.272949 
	C695.775208,806.926086 696.544678,811.323486 696.208130,816.593018 
M673.032471,828.500000 
	C673.032471,834.600708 673.032471,840.701355 673.032471,846.739197 
	C684.002502,847.579895 684.881104,846.795593 684.910828,836.570312 
	C684.927734,830.752014 684.905579,824.933533 684.886719,819.115173 
	C684.857178,810.033081 682.195557,807.958923 673.029114,810.170715 
	C673.029114,815.896057 673.029114,821.698364 673.032471,828.500000 
M684.907410,786.360046 
	C684.901794,780.877686 684.921509,775.395203 684.884949,769.913086 
	C684.824097,760.776733 682.383911,758.817810 673.358887,760.641968 
	C673.358887,773.007568 673.358887,785.379395 673.358887,797.723145 
	C683.553711,798.479858 684.803162,797.426392 684.883850,788.307922 
	C684.886780,787.975647 684.891907,787.643433 684.907410,786.360046 
z"/>
<path fill="#EFEEEF" opacity="1.000000" stroke="none" 
	d="
M923.929626,756.996460 
	C926.313477,754.568665 928.353088,751.607056 931.142517,749.808228 
	C941.552551,743.094910 955.384338,747.355286 960.696777,759.208984 
	C960.838867,789.233276 960.906860,818.614319 960.974854,847.995361 
	C956.707825,858.142639 953.164185,860.156921 939.881226,859.985413 
	C932.213745,859.886414 927.349731,856.212891 924.229797,847.579834 
	C924.188049,820.271973 924.205017,793.586060 924.190735,766.900208 
	C924.188965,763.598877 924.020752,760.297729 923.929626,756.996460 
M935.713745,832.481934 
	C935.711182,835.981140 935.506165,839.495056 935.760193,842.975525 
	C936.043457,846.857178 938.326355,848.948364 942.328125,849.019165 
	C946.334229,849.089966 948.538208,847.026367 949.162109,843.209778 
	C949.374817,841.908447 949.259033,840.550110 949.259338,839.217834 
	C949.264343,816.389526 949.265259,793.561157 949.263184,770.732849 
	C949.263000,768.567200 949.401184,766.385071 949.186890,764.239441 
	C948.799927,760.363342 946.545837,758.162598 942.617310,758.098450 
	C938.689270,758.034363 936.416626,760.219910 935.783264,764.011230 
	C935.538940,765.473816 935.670654,767.003174 935.671448,768.502136 
	C935.682434,789.497375 935.700500,810.492554 935.713745,832.481934 
z"/>
<path fill="#F4F4F4" opacity="1.000000" stroke="none" 
	d="
M408.048218,780.838379 
	C409.360321,772.344238 410.701630,764.299377 411.878571,756.230530 
	C413.044220,748.239624 412.971649,748.223938 421.098572,748.396606 
	C422.065186,748.417114 423.029846,748.528320 424.437561,748.629150 
	C418.717194,785.375366 413.045959,821.805603 407.389374,858.141907 
	C399.131042,859.691772 396.516510,857.956299 395.243988,849.925110 
	C390.451721,819.679138 385.732330,789.421570 380.975677,759.169983 
	C380.438568,755.754272 379.837921,752.348633 379.267792,748.944458 
	C389.331482,747.207520 390.598633,748.079773 392.064789,757.475342 
	C395.115204,777.023499 398.171783,796.570801 402.316162,816.219482 
	C404.212555,804.572083 406.108948,792.924622 408.048218,780.838379 
z"/>
<path fill="#F5F5F5" opacity="1.000000" stroke="none" 
	d="
M225.467560,858.808716 
	C221.470978,859.310486 217.839035,859.977234 214.213013,859.946472 
	C206.452545,859.880676 200.543335,854.647949 199.640228,846.928711 
	C199.139832,842.651550 199.072556,838.262085 199.387131,833.965515 
	C199.871567,827.349182 205.881485,826.846558 211.088196,824.120239 
	C211.088196,830.491455 211.126373,836.215149 211.075180,841.938049 
	C211.039246,845.955750 212.318939,848.956909 216.863678,849.000305 
	C221.391144,849.043640 222.678818,845.993408 222.906509,842.057556 
	C223.464172,832.418335 222.244476,823.336548 217.036469,814.783447 
	C211.950104,806.430054 207.607315,797.609314 203.194305,788.864380 
	C198.415833,779.395386 198.415680,769.208435 199.968292,759.077087 
	C201.283173,750.497192 208.246628,746.624634 219.591293,747.380920 
	C228.004791,747.941772 233.729462,753.539734 234.144806,761.612305 
	C234.691467,772.237366 234.223511,772.894226 222.768707,776.904968 
	C222.768707,772.926758 222.818954,769.147217 222.754868,765.369629 
	C222.687881,761.420776 221.317978,758.378174 216.738998,758.468201 
	C212.156540,758.558228 211.371674,761.687866 210.945557,765.590332 
	C209.783310,776.234131 213.299866,785.541626 218.410889,794.501404 
	C220.551117,798.253174 222.405487,802.194641 224.819061,805.759155 
	C233.247345,818.206787 235.556610,831.964172 234.264893,846.644043 
	C233.759705,852.385193 230.848862,856.199890 225.467560,858.808716 
z"/>
<path fill="#F5F5F5" opacity="1.000000" stroke="none" 
	d="
M848.705566,789.142822 
	C852.696838,796.466187 856.168518,803.668213 860.337585,810.441040 
	C867.470642,822.028931 867.577332,834.706787 866.949890,847.575745 
	C866.887024,848.865845 866.404419,850.196472 865.860840,851.392029 
	C862.715515,858.309753 853.848633,861.731750 844.273499,859.797607 
	C837.047852,858.337952 832.325256,852.613708 831.990784,844.870728 
	C831.926208,843.374878 831.959900,841.874634 831.951599,840.376404 
	C831.890198,829.257751 832.055664,829.018494 843.454895,824.602844 
	C843.454895,830.479248 843.430481,836.059387 843.463135,841.639221 
	C843.486572,845.646667 844.369202,849.183838 849.384155,849.067749 
	C854.303589,848.953796 854.825134,845.463806 855.194397,841.451477 
	C856.243774,830.047119 852.966187,820.061218 847.351501,810.178284 
	C841.732300,800.287170 836.562317,789.902344 833.084290,779.124390 
	C831.058655,772.847229 831.834534,765.219238 832.980530,758.476135 
	C834.482788,749.636475 842.021729,746.161865 853.437866,747.587646 
	C861.567932,748.603027 866.718811,754.117493 867.077515,762.190125 
	C867.503174,771.769470 865.682861,774.021790 855.097168,776.687866 
	C855.097168,772.646545 855.083618,768.684814 855.101135,764.723267 
	C855.117493,761.010803 853.534729,758.506836 849.640015,758.385254 
	C845.781311,758.264771 843.856750,760.694946 843.631958,764.317932 
	C843.099731,772.895996 843.712402,781.287964 848.705566,789.142822 
z"/>
<path fill="#F4F4F4" opacity="1.000000" stroke="none" 
	d="
M297.668762,749.628662 
	C302.204620,748.996704 306.459167,748.504272 310.723663,748.393616 
	C316.860077,748.234375 323.003723,748.352844 329.104492,748.352844 
	C329.664032,756.495239 326.588837,759.861145 319.024841,759.908752 
	C308.217285,759.976685 308.218658,759.976746 308.221680,770.636230 
	C308.223969,778.624268 308.222137,786.612305 308.222137,795.263489 
	C313.722687,795.263489 318.939423,795.263489 324.133179,795.263489 
	C324.195740,804.750793 319.987732,807.985413 313.262299,806.957825 
	C309.472900,806.378845 307.984497,807.700562 308.087738,811.848633 
	C308.373535,823.331787 308.186737,834.826660 308.186737,846.828430 
	C315.954132,846.828430 323.507141,846.828430 331.084229,846.828430 
	C330.471039,856.155396 327.763123,858.797607 319.282104,858.804626 
	C311.964874,858.810669 304.647675,858.805847 297.097382,858.805847 
	C296.966644,857.510315 296.755859,856.392090 296.755249,855.273804 
	C296.736938,821.785767 296.730316,788.297791 296.766418,754.809753 
	C296.768158,753.185852 297.174164,751.562378 297.668762,749.628662 
z"/>
<path fill="#F4F4F5" opacity="1.000000" stroke="none" 
	d="
M519.551758,539.727173 
	C505.520233,574.727112 480.648193,597.946350 445.630035,610.242981 
	C440.666046,611.986023 434.877960,612.103699 429.553223,611.747986 
	C427.378387,611.602661 424.828827,608.524658 423.527496,606.182129 
	C422.148376,603.699524 423.342255,601.663635 426.711426,600.991821 
	C472.856689,591.790649 499.937836,562.650574 512.617920,518.544495 
	C513.215515,516.465881 513.742615,514.366882 514.292358,512.274658 
	C514.791138,510.376740 515.276001,508.475128 515.785645,506.503174 
	C524.498840,511.824799 526.125793,515.160461 524.010010,524.538513 
	C522.878540,529.553528 521.161499,534.436401 519.551758,539.727173 
z"/>
<path fill="#F4F3F4" opacity="1.000000" stroke="none" 
	d="
M496.018494,748.359375 
	C502.115967,748.365173 507.718018,748.365173 513.334229,748.365173 
	C512.832581,757.356018 510.153198,759.944397 502.038971,759.898865 
	C492.314514,759.844299 492.293579,759.844299 492.257507,769.571289 
	C492.226654,777.897095 492.251129,786.222961 492.251129,795.165649 
	C497.611328,795.165649 502.811676,795.165649 508.021545,795.165649 
	C507.602936,804.392334 505.362152,806.871948 497.155579,806.919678 
	C493.525024,806.940796 492.173767,808.046082 492.239777,811.821655 
	C492.442993,823.440247 492.313873,835.064636 492.313873,847.018799 
	C500.061188,847.018799 507.515015,847.018799 514.986267,847.018799 
	C514.287170,856.233459 511.538300,858.877808 503.034027,858.863525 
	C495.881256,858.851562 488.728424,858.861023 480.904144,858.861023 
	C480.904144,856.330261 480.904480,854.069275 480.904114,851.808289 
	C480.898956,819.651428 480.896698,787.494568 480.885925,755.337708 
	C480.883728,748.745544 481.230957,748.380737 488.025116,748.328735 
	C490.524231,748.309570 493.023743,748.343750 496.018494,748.359375 
z"/>
<path fill="#F5F5F5" opacity="1.000000" stroke="none" 
	d="
M549.230469,667.856445 
	C556.684204,672.529114 563.817871,677.021484 570.951538,681.513794 
	C570.767029,682.082031 570.582520,682.650208 570.398010,683.218445 
	C564.575500,683.218445 558.654236,682.534790 552.950867,683.359192 
	C540.690430,685.131409 532.571655,681.234253 525.632751,670.325989 
	C515.293152,654.071716 502.972260,639.068237 491.319000,623.665222 
	C487.979370,619.250916 487.681458,615.148071 490.207489,610.277466 
	C495.166565,600.715759 499.805420,590.987915 504.587219,581.307678 
	C514.334473,586.802856 515.343689,590.244446 510.435883,599.439331 
	C507.619843,604.715210 502.493622,610.228455 502.857269,615.316895 
	C503.219696,620.388306 509.098633,625.094299 512.635803,629.903870 
	C519.442749,639.159485 526.217468,648.441467 533.214111,657.552368 
	C534.644348,659.414917 536.887207,660.740784 538.939697,662.018066 
	C542.181335,664.035645 545.578857,665.802917 549.230469,667.856445 
z"/>
<path fill="#F9F9F9" opacity="1.000000" stroke="none" 
	d="
M758.668701,768.000977 
	C758.672119,761.362854 758.672119,755.224426 758.672119,749.156677 
	C768.036255,747.053711 770.419128,748.923584 770.421021,758.028931 
	C770.427124,787.157715 770.443481,816.286438 770.455200,845.415222 
	C770.456970,849.719299 770.455444,854.023438 770.455444,858.863403 
	C768.351440,858.863403 766.738647,858.800049 765.132324,858.875427 
	C760.567627,859.089417 758.576233,857.229431 758.601196,852.391663 
	C758.745300,824.428650 758.667847,796.464478 758.668701,768.000977 
z"/>
<path fill="#F4F4F4" opacity="1.000000" stroke="none" 
	d="
M591.368042,577.845825 
	C591.035034,582.189392 590.311218,586.363037 589.523254,590.906250 
	C586.413940,590.511414 583.990662,590.277283 581.592896,589.886902 
	C569.077942,587.848877 557.096375,589.827759 545.471802,594.589233 
	C545.164368,594.715149 544.850708,594.825989 544.541748,594.948242 
	C534.856567,598.781189 533.209045,598.148499 528.289429,588.196350 
	C547.922363,576.883606 568.745056,573.337280 591.368042,577.845825 
z"/>
<path fill="#0A090A" opacity="1.000000" stroke="none" 
	d="
M923.542480,757.057495 
	C924.020752,760.297729 924.188965,763.598877 924.190735,766.900208 
	C924.205017,793.586060 924.188049,820.271973 924.109985,847.205078 
	C923.068115,847.384460 921.360352,847.542969 921.257446,847.208252 
	C920.881470,845.984802 921.003235,844.596924 921.002930,843.270996 
	C920.996460,816.546692 920.953125,789.822144 921.092834,763.098572 
	C921.103271,761.101624 922.436829,759.111633 923.542480,757.057495 
z"/>
<path fill="#0C0C0C" opacity="1.000000" stroke="none" 
	d="
M961.227539,848.152832 
	C960.906860,818.614319 960.838867,789.233276 960.832031,759.457397 
	C964.764526,758.849365 963.971375,761.734497 963.975647,763.893494 
	C964.015930,784.484802 963.999939,805.076355 963.999817,825.667786 
	C963.999756,832.144104 964.096313,838.623230 963.913452,845.094421 
	C963.877930,846.351501 965.005981,849.343872 961.227539,848.152832 
z"/>
<path fill="#000000" opacity="1.000000" stroke="none" 
	d="
M775.034424,561.920715 
	C774.669495,561.849976 774.476746,561.567139 774.284058,561.284302 
	C774.523315,561.193787 774.762512,561.103271 775.239502,561.123474 
	C775.387085,561.392334 775.296875,561.550537 775.034424,561.920715 
z"/>
<path fill="#000000" opacity="1.000000" stroke="none" 
	d="
M954.250000,498.250000 
	C954.533325,498.299988 954.566650,498.600006 954.599976,498.899994 
	C954.399963,498.766663 954.200012,498.633331 954.250000,498.250000 
z"/>
<path fill="#000000" opacity="1.000000" stroke="none" 
	d="
M635.245117,592.580505 
	C634.989929,592.629395 634.556152,592.348755 634.376892,591.854248 
	C634.776428,591.843933 634.921448,592.047424 635.245117,592.580505 
z"/>
<path fill="#0E0D0E" opacity="1.000000" stroke="none" 
	d="
M673.030762,828.000305 
	C673.029114,821.698364 673.029114,815.896057 673.029114,810.170715 
	C682.195557,807.958923 684.857178,810.033081 684.886719,819.115173 
	C684.905579,824.933533 684.927734,830.752014 684.910828,836.570312 
	C684.881104,846.795593 684.002502,847.579895 673.032471,846.739197 
	C673.032471,840.701355 673.032471,834.600708 673.030762,828.000305 
z"/>
<path fill="#0E0D0E" opacity="1.000000" stroke="none" 
	d="
M684.901733,786.835571 
	C684.891907,787.643433 684.886780,787.975647 684.883850,788.307922 
	C684.803162,797.426392 683.553711,798.479858 673.358887,797.723145 
	C673.358887,785.379395 673.358887,773.007568 673.358887,760.641968 
	C682.383911,758.817810 684.824097,760.776733 684.884949,769.913086 
	C684.921509,775.395203 684.901794,780.877686 684.901733,786.835571 
z"/>
<path fill="#050505" opacity="1.000000" stroke="none" 
	d="
M935.715271,831.984863 
	C935.700500,810.492554 935.682434,789.497375 935.671448,768.502136 
	C935.670654,767.003174 935.538940,765.473816 935.783264,764.011230 
	C936.416626,760.219910 938.689270,758.034363 942.617310,758.098450 
	C946.545837,758.162598 948.799927,760.363342 949.186890,764.239441 
	C949.401184,766.385071 949.263000,768.567200 949.263184,770.732849 
	C949.265259,793.561157 949.264343,816.389526 949.259338,839.217834 
	C949.259033,840.550110 949.374817,841.908447 949.162109,843.209778 
	C948.538208,847.026367 946.334229,849.089966 942.328125,849.019165 
	C938.326355,848.948364 936.043457,846.857178 935.760193,842.975525 
	C935.506165,839.495056 935.711182,835.981140 935.715271,831.984863 
z"/>
</svg>