<?xml version="1.0" encoding="utf-8"?>
<svg xmlns="http://www.w3.org/2000/svg" viewBox="310 118 700 428">
  <style>.st0{fill:#E80787;}</style>
  <g>
    <path class="st0" d="M350.1,466.9v-9.7c0-2.6-2-4.7-4.6-4.7c-2.5,0-4.6,2-4.6,4.7v8c0,4.9,3.7,11.3,3.7,11.3l10.3,19.4c4.2,7.7,3.8,13.3,3.8,13.3v10.7c0,5.9-4.8,10.7-10.8,10.7h-5.4c-5.7-0.2-10.3-4.9-10.4-10.7v-8.6c0-2.8,1.3-4.1,2.4-4.7c0.7-0.2,4.2-1.8,6.3-2.8v14.6c0,2.5,2,4.6,4.6,4.6c2.5,0,4.6-2,4.6-4.7v-9.6c0-4.9-3.7-11.4-3.7-11.4L336.1,478c-4.2-7.7-3.8-13.3-3.8-13.3v-8.6c0-5.9,4.8-11.1,10.8-11.1h5.4c5.7,0.1,10.4,5.4,10.4,11.1v3.2c0,2.8-1.3,4.1-2.4,4.7C355.8,464.4,352.4,465.9,350.1,466.9z"/>
    <path class="st0" d="M434.3,521.1c-1,2.2-2.4,5.5-2.8,6.2c-0.6,1.1-1.9,2.3-4.7,2.3h-19.2v-81.4c0.1-1.3,1.2-2.4,2.6-2.4h22.4l-2.9,6.2c-0.5,1.1-1.8,2.4-4.6,2.4h-6.9c-1.2,0-2,0.8-2,2v24.9h12.9c-1,2.2-2.4,5.6-2.8,6.3c-0.6,1.1-1.8,2.3-4.5,2.3h-3.6c-1.1,0-2,1-2,2v29.1H434.3z"/>
    <path class="st0" d="M492.6,529.6h-3.7h-0.6c-4.3,0-5-5.1-5.1-5.9l-12-78h6.6c0.6,0,2,0.5,2.5,3.2l8,52.6l8.5-55.8h8.6L492.6,529.6z"/>
    <path class="st0" d="M576.1,521.1c-1,2.2-2.4,5.5-2.8,6.2c-0.6,1.1-1.9,2.3-4.7,2.3h-19.2v-81.4c0.1-1.3,1.2-2.4,2.6-2.4h22.4l-2.9,6.2c-0.5,1.1-1.8,2.4-4.5,2.4h-6.9c-1.2,0-2,0.8-2,2v24.9h12.9c-1,2.2-2.4,5.6-2.8,6.3c-0.6,1.1-1.8,2.3-4.6,2.3h-3.6c-1.1,0-2,1-2,2v29.1H576.1z"/>
    <path class="st0" d="M644.8,529.6h-4c-4.7,0-5.4-3.7-5.7-5.4l-9.2-41.4v46.8h-8.6v-83.8h4c4.8,0,5.6,2.3,6.1,4.7l8.9,43.6v-48.3h8.6V529.6z"/>
    <path class="st0" d="M716,494.6v24.5c-0.1,5.9-4.8,10.5-10.7,10.5h-15.6v-83.8h15.6c5.9,0,10.5,4.7,10.7,10.5v24.5c0,0,0.1,5.3-4.9,6.8C716.1,489.3,716,494.6,716,494.6z M707.4,458.8c0-3.1-2.2-4.3-4.4-4.3h-4.7v29.3h4.7c2.3,0,4.4-1.1,4.4-4.9V458.8z M707.4,496.5c0-3.7-2.2-4.8-4.4-4.8h-4.7v29.5h4.7c2.3,0,4.4-1.2,4.4-4.4V496.5z"/>
    <path class="st0" d="M769.6,445.8c2.5,0,3.5,1.9,3.5,3.4v80.5H767c-2,0-2.4-1.2-2.5-1.8v-82H769.6z"/>
    <path class="st0" d="M839.2,466.9v-9.7c0-2.6-2-4.7-4.5-4.7c-2.5,0-4.6,2-4.6,4.7v8c0,4.9,3.7,11.3,3.7,11.3l10.3,19.4c4.2,7.7,3.8,13.3,3.8,13.3v10.7c0,5.9-4.8,10.7-10.8,10.7h-5.4c-5.7-0.2-10.3-4.9-10.4-10.7v-8.6c0-2.8,1.3-4.1,2.4-4.7c0.7-0.2,4.2-1.8,6.3-2.8v14.6c0,2.5,2,4.6,4.6,4.6c2.5,0,4.5-2,4.5-4.7v-9.6c0-4.9-3.7-11.4-3.7-11.4L825.2,478c-4.2-7.7-3.8-13.3-3.8-13.3v-8.6c0-5.9,4.8-11.1,10.8-11.1h5.4c5.7,0.1,10.4,5.4,10.4,11.1v3.2c0,2.8-1.3,4.1-2.4,4.7C844.8,464.4,841.5,465.9,839.2,466.9z"/>
    <path class="st0" d="M910,445c5.7,0.2,10.4,4.9,10.4,10.7v64.3c-0.1,5.7-4.7,10.3-10.4,10.5h-6.6c-5.9,0-10.7-4.8-10.8-10.5v-64.3c0-5.9,4.8-10.7,10.8-10.7H910z M907.1,522.9c2.5,0,4.6-2,4.6-4.7v-61.1c0-2.6-2-4.7-4.6-4.7h-1.3c-2.5,0.1-4.6,2.2-4.6,4.7v61.1c0,2.5,2,4.6,4.6,4.7H907.1z"/>
    <path class="st0" d="M992.1,529.6h-4c-4.7,0-5.4-3.7-5.7-5.4l-9.2-41.4v46.8h-8.6v-83.8h4c4.8,0,5.6,2.3,6.1,4.7l8.9,43.6v-48.3h8.6V529.6z"/>
  </g>
  <g>
    <path class="st0" d="M582.9,270.1L582.9,270.1c1-4.8-2.1-9.5-7-10.3l-0.1,0l-0.8,4.4c-4.4,24.7-16.9,43.7-37.1,56.3c-15.2,9.5-29.4,11.8-29.5,11.8l-4.4,0.6v0c0.7,4.9,5.5,8.2,10.4,7.1c1.4-0.3,2.7-0.6,3.9-1c6.1-1.8,14.8-5.1,24-10.8C557.1,319,575.9,301.5,582.9,270.1z"/>
    <path class="st0" d="M589.5,375.9l-24.4-32.8l7.3-15c2.1-4.4,0.3-9.8-4.1-11.9l-12.4,25.5l0.4,4.6l34.4,46.1l3.6,1.8h24.4L589.5,375.9z"/>
    <path class="st0" d="M590,320.4l-4,1.9c2.1,4.4,7.3,6.3,11.8,4.4c0.2-0.1,0.4-0.2,0.5-0.2c8.9-3.5,17.9-8,34.4-3.1c0.5,0.1,1.8-9.1,1.8-9.1C622.1,310.3,602.3,314.5,590,320.4z"/>
    <path class="st0" d="M888.1,244.7l1.9-31.5l-2.6-4.3l-150-70.3c-8.6-4.1-18.7-3.6-26.9,1.3L508.8,259.6c15-32.3,15.3-64.3,0.2-82.6c0,0-6.7,39.3-24.7,41.7l-3.9,4.4l8.9,32.7v-29.1c11.2-3.3,17.6-13.9,21.1-23.6c1.8,14.5,0.3,37.6-16.8,65.9l6.1,6.1l20.8-12.2c0.9,10.1,1.6,45.1-27.4,64.4l-2,3.7v58.6l4.5,4.5h19.3l-14.9-18v-42.7c36.6-26.1,29.3-72.8,29-74.8l-0.1-0.6l191.9-112.3c0.9,6.6,2.9,26.3-2.1,48.9c-8.2,36.7-30.1,63.4-65.1,79.3l-4.1,1.8c2,4.5,7.4,6.4,11.8,4.3c1.5-0.7,2.8-1.3,3.5-1.7c41.4-21.8,57-56.3,62.7-82.1c4.9-22.5,3.5-41.8,2.4-50.2l151.1,69.6l-1.6,27.9c-5-0.9-10-2.3-15.4-4.3l-4.2-1.5c-1.7,4.6,0.7,9.8,5.4,11.4c0.3,0.1,0.6,0.2,0.8,0.3c19.2,6.1,35.7,5.4,54.1,0.8c-21.4,17.9-43,19.7-56.6,18.3c-1-0.1-2.5-0.3-4.1-0.6c-4.8-0.9-9.5,2.2-10.5,7l4.3,1c3,0.7,6.9,1.3,11.6,1.7l-45.3,54.5l-17.7-8.6c1.4-8.7-2.7-19.2-10.5-25.9c-5.6-4.7-21.2-14.1-46.1,1.1l-3.8,2.3c2.5,4.2,7.9,5.6,12.2,3.2c0.7-0.4,1.3-0.7,1.6-0.9c3.5-1.7,6.8-2.8,9.7-3.4l15.2,36.7L749.7,367l-15-8c-4.3-2.3-9.7-0.6-12,3.7l25.8,13.7l5.2-0.8l34.8-34.9l1-4.9l-15.1-36.5c5.2,0.7,8.9,2.9,11.2,4.9c6.8,5.8,8.9,14.8,6.9,19.8l2.2,5.7l24.1,11.8l5.4-1.2l52.2-62.9c14.2-1,32.1-6.6,44.9-17.4c5.6-4.5,12.7-12.1,17.3-23.6C921.3,242.3,902.9,245.8,888.1,244.7z"/>
    <path class="st0" d="M663.5,340.2c22.6-17.1,57.7-24.2,79.1-8.3c0.4,0.3,1.1,0.9,1.8,1.6c3.6,3.3,9.1,3.2,12.7-0.1l-3.1-3.2c-17.7-18.4-54.2-23.4-88-2.4c0.7-1.6,1.5-3.1,2.3-4.6c12.3-22.7,33.2-37.5,63.8-44.8c0.7-0.2,1.9-0.4,3.3-0.7c4.8-1,8.8-5.9,8.8-10.8v0l-4.4,0.8c-38,6.9-64.7,24.2-79.3,51.3c-12.7,23.5-14.3,50.2-14.3,70.9l4.5,4.5h21.2l-16.7-18.3c0.2-13,1.2-18.7,5.4-33.4L663.5,340.2z"/>
  </g>
</svg>
