<svg version="1.1" id="Layer_1" xmlns="http://www.w3.org/2000/svg" xmlns:xlink="http://www.w3.org/1999/xlink" x="0px" y="0px"
	 width="100%" viewBox="0 0 1024 1024" enable-background="new 0 0 1024 1024" xml:space="preserve">
<path fill="#000000" opacity="1.000000" stroke="none" 
	d="
M793.102539,408.031738 
	C796.001709,407.490234 798.973633,404.907837 800.908447,407.057037 
	C803.044067,409.429382 800.572144,412.398041 799.285706,414.769348 
	C788.863342,433.981201 772.036743,445.153625 751.205200,448.746124 
	C740.069214,450.666565 733.188843,455.945862 726.770996,464.175629 
	C714.274536,480.200134 701.286682,495.841766 688.475159,511.619965 
	C683.659363,517.550964 681.118164,518.170166 674.231873,515.040100 
	C669.075806,512.696472 664.080505,509.974976 658.841675,507.844360 
	C653.602173,505.713409 651.669617,502.112061 651.723328,496.582581 
	C651.823242,486.284302 646.267761,478.218018 637.862610,475.671356 
	C637.405334,475.532745 636.891296,475.581421 636.061340,475.515869 
	C635.674622,478.887726 637.458069,481.579895 638.581116,484.355865 
	C641.704163,492.075256 644.919434,499.761993 648.318787,507.363068 
	C650.102051,511.350677 649.796814,514.376587 646.496216,517.632935 
	C635.821533,528.164490 625.444885,538.997864 614.921997,549.683899 
	C610.419617,554.255981 608.040649,554.651794 602.538391,551.816772 
	C596.466187,548.688110 590.400085,545.545349 584.384216,542.310486 
	C581.990967,541.023621 578.607056,540.045776 580.621887,536.132446 
	C582.442383,532.596680 585.165771,529.980652 589.440613,531.683533 
	C593.913940,533.465454 598.304688,535.580444 602.444397,538.034241 
	C605.695801,539.961548 607.808960,539.249512 610.216125,536.739929 
	C617.828125,528.804016 625.545898,520.967773 633.324951,513.195312 
	C635.205872,511.315979 635.853638,509.636475 634.716248,507.038147 
	C630.575317,497.578430 626.557312,488.063049 622.643250,478.507080 
	C621.528137,475.784576 620.087708,474.852386 617.324219,476.149567 
	C614.766235,477.350281 612.095703,478.312683 609.546753,479.530670 
	C607.393188,480.559784 605.577209,480.574036 603.523743,479.078064 
	C597.402039,474.618286 597.395386,472.812561 603.801147,468.754913 
	C618.486694,459.452576 637.192078,459.284729 650.090759,468.329407 
	C657.926331,473.823792 662.198608,481.408875 663.393250,490.833130 
	C664.019287,495.771271 673.333313,503.484741 678.207947,503.164551 
	C679.547913,503.076508 680.200012,502.068604 680.926941,501.177002 
	C693.875732,485.293243 706.819092,469.404999 719.755249,453.510986 
	C720.261841,452.888550 720.924377,452.290161 720.536865,451.183075 
	C718.829285,449.699799 716.487183,450.386169 714.442322,449.853455 
	C711.518677,449.091766 708.211182,449.003571 708.719849,444.592316 
	C709.156494,440.805328 712.975342,437.386688 716.676025,438.011292 
	C721.981445,438.906738 727.294861,438.877930 732.622620,438.854614 
	C747.195496,438.790833 760.443726,434.491760 773.488708,425.746613 
	C762.978088,426.763031 753.531616,427.923248 744.009155,426.426758 
	C738.233826,425.519135 732.551147,424.309296 726.924011,422.798615 
	C722.133484,421.512573 718.548401,417.352234 718.057556,412.509399 
	C717.645203,408.441223 720.172363,408.068420 723.188782,408.881104 
	C727.660339,410.085785 731.979065,411.903748 736.948730,412.267456 
	C738.526184,408.547974 737.581299,404.702118 737.874390,400.992157 
	C737.992249,399.499817 737.622253,397.905304 738.013733,396.508514 
	C740.529846,387.531647 735.917053,383.997742 728.195862,380.494110 
	C683.597778,360.256989 639.278870,339.404846 594.860291,318.771851 
	C594.123474,318.429596 593.323242,318.223694 591.784119,317.685425 
	C591.689819,325.819153 591.948547,333.549957 591.408752,341.255219 
	C587.826111,392.393219 564.630005,430.708801 518.098816,453.816284 
	C515.697876,455.008545 513.150696,456.828705 510.151611,454.833862 
	C504.325317,450.958557 504.441162,447.039215 510.702698,443.955139 
	C536.697083,431.151794 556.806946,412.524323 568.640381,385.665619 
	C578.142517,364.098267 580.014709,341.437103 578.618774,318.164307 
	C575.682861,317.875244 573.923645,319.620361 571.997009,320.739777 
	C511.066101,356.142120 450.170074,391.604492 389.213623,426.962616 
	C386.060699,428.791443 384.849335,430.799072 385.065460,434.522949 
	C386.371307,457.019501 381.867188,477.932159 367.439362,495.946777 
	C366.295837,497.374512 364.994019,498.674469 363.818604,500.078033 
	C362.684265,501.432556 360.840057,502.216248 360.293732,504.576660 
	C367.201416,503.994720 373.448761,501.890930 379.438599,499.100555 
	C406.424622,486.529022 422.713196,465.527191 428.603668,436.374939 
	C429.067413,434.079742 428.596710,430.486786 431.588715,430.260681 
	C434.874237,430.012329 437.222382,432.767578 438.839447,435.641571 
	C440.252136,438.152313 439.771149,440.826141 439.222168,443.447449 
	C433.286163,471.790619 417.138916,492.546082 392.103546,506.632355 
	C386.276672,509.910858 380.036072,512.252014 373.632019,514.172180 
	C362.894989,517.391541 362.301849,517.207764 356.004303,508.021362 
	C353.453308,508.635071 354.019897,510.808228 354.009308,512.451782 
	C353.928741,524.950317 353.982147,537.449585 353.922668,549.948303 
	C353.910522,552.496033 355.100159,554.322449 356.686646,556.137573 
	C360.570099,560.580505 364.341370,565.121521 369.020294,570.640442 
	C360.700226,571.461914 353.766724,571.877380 346.980011,570.577271 
	C343.455322,569.902100 341.723877,566.497742 341.709167,562.880859 
	C341.632568,544.048828 341.667694,525.216370 341.690613,506.384033 
	C341.694885,502.853485 343.844391,500.650085 346.482330,498.648682 
	C364.912109,484.665955 372.402435,465.473755 372.798187,442.961151 
	C372.826660,441.344299 373.202850,439.624329 371.799042,437.597565 
	C366.766876,439.424072 362.256409,442.484985 357.695007,445.357788 
	C354.853363,447.147522 352.349487,447.501923 349.363068,445.704865 
	C345.745758,443.528137 344.629822,441.199158 346.833160,437.128387 
	C354.748016,422.505066 360.003479,406.960266 362.246185,390.431702 
	C362.782196,386.481354 362.673615,382.575592 362.542633,377.051422 
	C357.373657,385.888672 351.667297,392.227631 344.308105,396.948029 
	C342.489899,398.114319 342.384186,399.904419 342.383301,401.787292 
	C342.380554,407.620392 342.397400,413.454376 342.291992,419.285950 
	C342.264313,420.814911 342.979797,422.587372 341.375305,423.913391 
	C339.184906,423.070740 339.413452,420.911560 338.857849,419.328674 
	C336.155090,411.628448 333.624451,403.867981 331.011993,396.135895 
	C329.997009,393.131714 330.132935,390.344269 333.274536,388.827179 
	C348.697693,381.379333 354.448853,367.557617 357.914337,352.093719 
	C358.557159,349.225250 358.310852,346.085114 360.221954,343.242859 
	C365.294159,343.483429 367.523407,346.907227 369.332794,351.031525 
	C376.831146,368.123169 376.526428,385.681183 372.496643,403.437836 
	C370.806305,410.886139 368.582123,418.196686 365.346924,426.569427 
	C375.615997,420.568146 384.863708,415.141663 394.132202,409.750946 
	C441.657532,382.109436 489.193115,354.485596 536.713501,326.835602 
	C548.377747,320.048706 560.046814,313.267670 571.622681,306.332153 
	C579.837280,301.410522 587.534790,301.135803 596.565430,305.402405 
	C644.309998,327.959534 692.302979,349.991760 740.251648,372.115326 
	C750.418152,376.806152 751.319092,377.834534 751.089294,389.083740 
	C750.946411,396.078613 750.704163,403.073822 750.351013,410.061035 
	C750.176514,413.513123 751.558777,414.828064 755.004517,414.782928 
	C767.949524,414.613403 780.478149,412.210999 793.102539,408.031738 
z"/>
<path fill="#000000" opacity="1.000000" stroke="none" 
	d="
M501.043884,563.315796 
	C500.032715,540.483398 502.570068,518.638611 512.160767,498.109558 
	C527.037109,466.266449 552.451172,447.632843 586.297058,439.871643 
	C590.830750,438.832031 595.455811,438.187683 600.042358,437.382233 
	C601.973816,437.043060 603.367920,437.564697 603.504395,439.803040 
	C603.730957,443.520599 599.057495,449.626068 595.315369,450.420319 
	C578.364929,454.018158 562.272461,459.611237 548.597839,470.710449 
	C540.046143,477.651550 532.669861,485.601440 527.467468,495.784882 
	C530.308777,496.146454 532.019043,494.640106 533.934082,493.801666 
	C559.942566,482.415497 585.217407,482.037720 609.355347,498.798248 
	C610.448303,499.557159 611.664917,500.255463 612.490906,501.256775 
	C614.155579,503.274780 618.466248,504.343231 615.330200,508.318970 
	C611.834717,512.750427 608.989929,513.293762 604.863159,510.300568 
	C580.832764,492.871094 556.375732,495.182495 531.677124,508.720062 
	C531.239258,508.960114 530.841492,509.294037 530.381348,509.469849 
	C519.075378,513.789978 515.276672,522.970764 514.376709,534.068726 
	C514.161804,536.718689 513.807861,539.359131 513.458313,541.996094 
	C512.588806,548.555847 513.426331,554.375366 518.921509,559.086609 
	C522.509399,562.162720 525.408020,566.042664 529.537598,570.574585 
	C520.704163,571.397522 513.203918,572.015198 505.792908,570.379028 
	C502.790588,569.716125 501.868622,566.547241 501.043884,563.315796 
z"/>
<path fill="#000000" opacity="1.000000" stroke="none" 
	d="
M850.882446,678.981934 
	C850.120605,675.494751 849.442383,672.418213 848.764221,669.341736 
	C848.545227,669.349670 848.326294,669.357605 848.107300,669.365540 
	C848.107300,680.532166 848.028442,691.699585 848.152161,702.864807 
	C848.192749,706.532166 847.578125,708.930603 843.106323,708.991821 
	C838.595642,709.053589 837.954895,706.632202 837.964600,702.970337 
	C838.032410,677.309204 837.978882,651.647888 838.050842,625.986816 
	C838.058716,623.178833 837.253967,619.585449 841.935791,619.343933 
	C846.059143,619.131287 848.566101,620.930847 849.404846,625.048035 
	C851.691040,636.270264 854.019775,647.483887 856.979065,658.672546 
	C856.979065,647.467163 857.051697,636.260986 856.937744,625.056763 
	C856.900269,621.368469 857.577209,618.984375 862.060852,619.026062 
	C866.398376,619.066467 867.298950,621.221252 867.286621,625.013306 
	C867.202332,650.841064 867.266235,676.669189 867.233765,702.497253 
	C867.230347,705.196533 868.022888,708.529236 863.656738,708.848206 
	C859.275024,709.168396 856.723206,707.082458 855.839905,702.851501 
	C854.207703,695.033386 852.589844,687.212341 850.882446,678.981934 
z"/>
<path fill="#000000" opacity="1.000000" stroke="none" 
	d="
M484.849792,619.648132 
	C489.668182,619.503235 491.500977,622.193481 492.279358,625.991028 
	C494.712036,637.859436 497.121735,649.732605 499.860748,661.607727 
	C499.860748,649.229675 499.925598,636.851013 499.820892,624.473877 
	C499.789764,620.797791 501.285065,619.588745 504.909943,619.561768 
	C509.023926,619.531250 509.402313,621.722534 509.395538,624.946228 
	C509.345245,648.918518 509.386017,672.890930 509.395752,696.863342 
	C509.396576,698.860962 509.511414,700.870239 509.336060,702.853088 
	C509.137543,705.097534 510.562836,708.373169 506.652679,708.730652 
	C503.028290,709.061951 499.953674,707.765747 498.926361,703.898010 
	C497.774689,699.562012 496.891235,695.152954 495.952118,690.762634 
	C494.214813,682.640808 492.522034,674.509399 490.341217,666.391235 
	C490.341217,678.855652 490.241638,691.321289 490.403503,703.783630 
	C490.450439,707.397583 489.219879,709.003113 485.571716,708.944092 
	C482.342133,708.891846 480.661163,707.766296 480.751556,704.220093 
	C480.912720,697.898254 480.784637,691.569153 480.783875,685.243042 
	C480.781525,665.265930 480.766266,645.288879 480.800964,625.311829 
	C480.805420,622.744019 480.189148,619.608826 484.849792,619.648132 
z"/>
<path fill="#000000" opacity="1.000000" stroke="none" 
	d="
M580.434143,665.166992 
	C581.175049,666.476318 582.077332,667.453674 582.205383,668.523743 
	C583.475159,679.131531 583.570251,689.783997 582.139893,700.357300 
	C581.594177,704.391541 578.493164,707.086670 574.502319,708.163513 
	C569.112976,709.617737 563.572510,709.015076 558.104065,708.749695 
	C554.800171,708.589355 555.063354,705.771606 555.052795,703.448547 
	C555.008057,693.623108 554.979309,683.797546 554.987366,673.971985 
	C555.000183,658.317810 554.967407,642.662964 555.114197,627.009827 
	C555.183472,619.614014 555.756226,619.211060 563.151855,619.132324 
	C564.815918,619.114563 566.486389,619.111633 568.144653,619.230957 
	C578.787659,619.997070 582.619934,623.954285 582.861694,634.665466 
	C583.004456,640.990356 582.638977,647.335571 582.994690,653.643799 
	C583.228821,657.796021 580.360168,660.953369 580.434143,665.166992 
M565.470032,670.032715 
	C565.402039,677.853760 565.280090,685.674988 565.301453,693.495789 
	C565.307251,695.630798 564.414429,698.533508 568.211792,698.615662 
	C571.726990,698.691772 572.821960,696.604919 572.815796,693.491577 
	C572.802490,686.831299 572.933838,680.168152 572.773804,673.511719 
	C572.663635,668.932434 570.687683,667.884277 565.470032,670.032715 
M565.250732,638.600220 
	C565.253662,643.898682 565.251526,649.197205 565.262024,654.495667 
	C565.266113,656.544006 565.208984,658.604797 568.170105,658.649902 
	C570.993042,658.692810 572.662659,657.378296 572.710510,654.579163 
	C572.826660,647.792847 572.791199,641.003723 572.784912,634.215698 
	C572.782227,631.288330 571.127686,630.114197 568.342773,630.121216 
	C565.501465,630.128357 565.235901,632.009155 565.260681,634.164124 
	C565.274048,635.322937 565.256226,636.482117 565.250732,638.600220 
z"/>
<path fill="#000000" opacity="1.000000" stroke="none" 
	d="
M763.760010,692.893799 
	C763.755066,672.783325 763.733887,653.156799 763.752747,633.530212 
	C763.764648,621.144409 774.799805,614.385803 785.985962,619.968323 
	C790.016174,621.979614 792.300659,625.388794 792.311096,629.964783 
	C792.363281,652.751343 792.426392,675.538513 792.297852,698.324402 
	C792.260742,704.900513 787.765503,709.175842 781.216003,709.315918 
	C777.920898,709.386475 774.506714,709.995911 771.334167,708.686584 
	C764.393616,705.822266 763.462891,699.879517 763.760010,692.893799 
M778.401306,628.404480 
	C774.843201,628.586487 774.093201,630.978638 774.092041,633.922485 
	C774.084412,654.080872 774.079834,674.239258 774.090881,694.397644 
	C774.092468,697.310425 774.714539,699.880676 778.401428,699.786804 
	C781.952332,699.696472 782.673645,697.282959 782.672241,694.292114 
	C782.662537,674.300110 782.678589,654.308044 782.691956,634.316040 
	C782.693787,631.643921 782.185791,629.299316 778.401306,628.404480 
z"/>
<path fill="#000000" opacity="1.000000" stroke="none" 
	d="
M349.150818,708.763306 
	C344.729370,708.446960 343.012878,705.992065 342.481079,702.241516 
	C340.263245,686.601562 337.984680,670.970154 335.732788,655.335022 
	C334.310791,645.461609 332.853027,635.592957 331.510712,625.708679 
	C331.190735,623.352539 329.306305,620.181152 333.933655,619.674988 
	C338.086487,619.220886 340.674805,620.630798 341.219025,625.097778 
	C342.184052,633.018433 343.220612,640.931519 344.338776,648.832031 
	C345.383179,656.211182 346.572510,663.569824 348.544678,670.960876 
	C350.268890,658.953491 351.992371,646.945923 353.717712,634.938721 
	C354.308563,630.826477 354.730255,626.680054 355.546051,622.612793 
	C356.366333,618.522949 359.820679,619.642578 362.464844,619.758057 
	C365.798096,619.903625 365.215942,622.489441 364.911377,624.607239 
	C361.101715,651.102234 357.234222,677.588989 353.459656,704.088928 
	C353.100098,706.613342 352.711670,708.754028 349.150818,708.763306 
z"/>
<path fill="#000000" opacity="1.000000" stroke="none" 
	d="
M195.086639,619.527405 
	C198.580917,618.461182 201.774307,618.566772 204.899338,618.982483 
	C211.272202,619.830139 214.992279,624.752625 215.227066,632.265076 
	C215.432892,638.851318 213.556900,641.089417 206.322830,642.718750 
	C204.182861,639.979797 205.314240,636.689514 204.993164,633.658752 
	C204.713501,631.019104 204.366425,628.347534 200.950378,628.517212 
	C197.962891,628.665588 197.509140,631.105042 197.316864,633.595581 
	C196.791077,640.405762 197.849625,646.835510 201.292328,652.848999 
	C204.271301,658.052551 206.915314,663.448792 209.924500,668.633911 
	C215.382431,678.038269 215.956985,688.284607 215.042938,698.679626 
	C214.383255,706.182190 209.542374,709.437927 200.371979,709.374329 
	C192.547791,709.320068 188.515854,705.840820 187.577057,698.386597 
	C187.242401,695.729492 187.201309,693.093750 187.446228,690.415588 
	C188.066147,683.636536 189.103806,682.471313 196.533600,681.224365 
	C197.854904,684.132935 197.121307,687.305298 197.288101,690.349548 
	C197.388275,692.178101 197.266068,694.019653 197.385910,695.846069 
	C197.535156,698.120483 198.683197,699.650940 201.097946,699.742798 
	C203.655655,699.840149 204.609055,698.133850 204.792358,695.922974 
	C205.447678,688.018799 205.090866,680.259399 201.261444,673.038086 
	C198.061417,667.003723 195.023071,660.878174 191.654999,654.939453 
	C186.872162,646.506226 186.379089,637.513306 187.842987,628.271606 
	C188.478867,624.257263 190.847336,621.287354 195.086639,619.527405 
z"/>
<path fill="#000000" opacity="1.000000" stroke="none" 
	d="
M699.826904,681.897583 
	C700.147217,686.251038 700.214233,690.240784 700.368774,694.227051 
	C700.479126,697.070435 701.093811,699.809448 704.688049,699.718811 
	C707.953064,699.636536 708.470581,697.108093 708.657043,694.413147 
	C709.173584,686.947510 708.128418,679.843933 704.452087,673.186646 
	C701.637329,668.089722 699.339966,662.691589 696.319580,657.727356 
	C691.232300,649.366028 689.985962,640.352051 690.709900,630.849304 
	C691.328613,622.727295 696.217041,618.693176 705.346008,618.808777 
	C713.497559,618.912048 718.071716,623.327942 718.360779,631.373108 
	C718.648987,639.394592 717.159363,641.400757 709.509583,642.794556 
	C708.109375,640.085754 708.847900,637.065918 708.694763,634.196228 
	C708.540955,631.313110 707.963867,628.439270 704.500671,628.586914 
	C701.266296,628.724792 700.564697,631.476562 700.315918,634.393494 
	C699.742126,641.119080 701.525208,647.244751 704.622375,653.085205 
	C707.117676,657.790649 709.379211,662.652893 712.253723,667.117737 
	C718.486450,676.798584 718.960571,687.487915 718.282043,698.401733 
	C717.850342,705.343994 713.044006,709.267090 705.372803,709.356628 
	C696.321594,709.462280 691.535217,706.008057 690.793030,698.593811 
	C690.512268,695.789490 690.642639,692.937195 690.688110,690.108398 
	C690.786316,684.005127 693.026733,681.881165 699.826904,681.897583 
z"/>
<path fill="#000000" opacity="1.000000" stroke="none" 
	d="
M451.012512,554.947266 
	C459.012665,559.944092 466.703491,564.757690 474.524963,569.653015 
	C472.638794,572.035706 470.485748,571.161926 468.646729,571.192322 
	C462.482849,571.294067 456.312683,571.078186 450.151154,571.232849 
	C446.836884,571.315979 444.444550,570.209595 442.482422,567.535522 
	C431.641113,552.760437 420.755951,538.017151 409.803406,523.324341 
	C407.414154,520.119202 407.223022,516.996704 409.083099,513.561096 
	C412.493591,507.261749 415.716888,500.855713 419.311951,494.664734 
	C420.455017,492.696259 420.795837,488.827118 424.747162,490.387726 
	C428.411743,491.835022 430.920807,497.424835 429.394440,500.678894 
	C427.344116,505.049957 425.184479,509.380890 422.830933,513.594482 
	C421.367004,516.215393 421.226227,518.283569 423.171234,520.846497 
	C430.422607,530.401367 437.469849,540.111572 444.557373,549.790039 
	C446.181396,552.007751 448.275116,553.575073 451.012512,554.947266 
z"/>
<path fill="#000000" opacity="1.000000" stroke="none" 
	d="
M420.554810,678.736389 
	C420.987885,683.660645 421.213379,688.159668 420.619965,692.627319 
	C420.048248,696.931641 421.023438,699.264282 426.088959,698.774597 
	C429.494293,698.445435 433.046326,698.198730 436.427734,699.194397 
	C437.256165,705.353577 434.795471,708.631958 429.018372,708.835876 
	C424.199005,709.005981 419.369141,708.884033 414.543945,708.883728 
	C411.886353,708.883606 410.684021,707.635681 410.689087,704.888672 
	C410.738464,678.097534 410.727814,651.306213 410.731812,624.514954 
	C410.732300,621.255493 412.457642,619.531921 415.606293,619.412598 
	C420.589630,619.223755 425.584564,619.056519 430.564789,619.205994 
	C432.613953,619.267578 435.979980,618.521790 435.828644,622.017090 
	C435.695129,625.100342 434.774506,628.411560 430.968842,629.350220 
	C430.023956,629.583313 428.985748,629.467651 427.990723,629.462952 
	C420.503998,629.427612 420.426361,629.423767 420.433502,636.743835 
	C420.438843,642.227844 420.805023,647.712830 420.756226,653.195068 
	C420.732697,655.839355 421.752136,656.861755 424.266174,656.717590 
	C425.095154,656.670044 425.953857,656.593628 426.756989,656.748352 
	C428.823517,657.146484 432.180603,655.433472 432.566437,658.687744 
	C432.916595,661.641541 431.250946,665.601501 428.280518,665.851624 
	C419.525940,666.588745 420.450256,672.527771 420.554810,678.736389 
z"/>
<path fill="#000000" opacity="1.000000" stroke="none" 
	d="
M263.657013,697.953186 
	C263.659546,673.994812 263.651947,650.528137 263.673035,627.061523 
	C263.679169,620.262268 263.896912,619.965942 270.501923,619.500977 
	C274.644714,619.209290 278.812317,619.100098 282.963959,619.175659 
	C285.097473,619.214478 288.343414,618.234253 288.689178,621.477234 
	C288.981537,624.219238 287.842194,627.094543 285.163635,628.760437 
	C284.490448,629.179199 283.607910,629.332520 282.798645,629.450317 
	C273.327087,630.829834 273.323883,630.821838 273.313812,640.561279 
	C273.310211,644.056335 273.559418,647.571899 273.262085,651.041260 
	C272.880646,655.492798 274.730164,657.088745 279.020813,656.748962 
	C280.952118,656.596130 283.004425,656.336609 284.869598,657.251160 
	C285.441559,663.308777 283.470062,666.257996 277.775726,666.800232 
	C274.319000,667.129456 273.226074,668.512207 273.295441,671.822998 
	C273.452240,679.309021 273.426331,686.801941 273.300598,694.289185 
	C273.246216,697.527222 274.569580,698.686523 277.750183,698.699158 
	C281.696991,698.714844 285.710907,698.094055 289.590942,699.242004 
	C289.595367,706.493408 287.529419,708.736511 280.689484,708.900940 
	C277.029877,708.988953 273.360809,708.813843 269.707275,708.990417 
	C265.335876,709.201782 263.055695,707.639404 263.652344,702.934692 
	C263.839172,701.461548 263.666107,699.942810 263.657013,697.953186 
z"/>
<path fill="#000000" opacity="1.000000" stroke="none" 
	d="
M642.279053,635.017395 
	C642.279175,657.844055 642.264771,680.173584 642.293152,702.503174 
	C642.297363,705.793213 642.607910,708.971313 637.731506,708.953613 
	C633.150085,708.936951 632.117981,706.279297 632.116760,702.484192 
	C632.108154,676.327209 631.676270,650.167969 632.568359,624.015686 
	C632.647400,621.699951 632.749878,619.685608 635.919189,619.650330 
	C639.152222,619.614380 641.715393,620.541382 642.075989,624.032715 
	C642.434021,627.498596 642.233765,631.022095 642.279053,635.017395 
z"/>
<path fill="#000000" opacity="1.000000" stroke="none" 
	d="
M440.265778,494.520020 
	C454.636841,485.822845 469.910461,483.155151 486.094910,485.453766 
	C488.647675,485.816345 492.310150,485.298798 491.753754,489.864960 
	C491.030945,495.796753 489.169342,497.859924 484.149628,497.183868 
	C475.746399,496.052155 467.564209,496.779144 459.485535,499.115936 
	C456.774872,499.899994 454.085205,500.810822 451.477051,501.884918 
	C444.302277,504.839630 441.177399,502.952209 440.265778,494.520020 
z"/>
</svg>