<?xml version="1.0" encoding="utf-8"?>
<!--
  Seven Bison — favicon (mark only, no wordmark)
  viewBox cropped to bison mark: x≈460 y≈118 w≈480 h≈390
  Place in /app/icon.svg → Next.js 15 auto-detects as site favicon.
-->
<svg xmlns="http://www.w3.org/2000/svg" viewBox="460 118 490 400">
  <style>.st0{fill:#E80787;}</style>
  <path class="st0" d="M582.9,270.1L582.9,270.1c1-4.8-2.1-9.5-7-10.3l-0.1,0l-0.8,4.4c-4.4,24.7-16.9,43.7-37.1,56.3c-15.2,9.5-29.4,11.8-29.5,11.8l-4.4,0.6v0c0.7,4.9,5.5,8.2,10.4,7.1c1.4-0.3,2.7-0.6,3.9-1c6.1-1.8,14.8-5.1,24-10.8C557.1,319,575.9,301.5,582.9,270.1z"/>
  <path class="st0" d="M589.5,375.9l-24.4-32.8l7.3-15c2.1-4.4,0.3-9.8-4.1-11.9l-12.4,25.5l0.4,4.6l34.4,46.1l3.6,1.8h24.4L589.5,375.9z"/>
  <path class="st0" d="M590,320.4l-4,1.9c2.1,4.4,7.3,6.3,11.8,4.4c0.2-0.1,0.4-0.2,0.5-0.2c8.9-3.5,17.9-8,34.4-3.1c0.5,0.1,1.8-9.1,1.8-9.1C622.1,310.3,602.3,314.5,590,320.4z"/>
  <path class="st0" d="M888.1,244.7l1.9-31.5l-2.6-4.3l-150-70.3c-8.6-4.1-18.7-3.6-26.9,1.3L508.8,259.6c15-32.3,15.3-64.3,0.2-82.6c0,0-6.7,39.3-24.7,41.7l-3.9,4.4l8.9,32.7v-29.1c11.2-3.3,17.6-13.9,21.1-23.6c1.8,14.5,0.3,37.6-16.8,65.9l6.1,6.1l20.8-12.2c0.9,10.1,1.6,45.1-27.4,64.4l-2,3.7v58.6l4.5,4.5h19.3l-14.9-18v-42.7c36.6-26.1,29.3-72.8,29-74.8l-0.1-0.6l191.9-112.3c0.9,6.6,2.9,26.3-2.1,48.9c-8.2,36.7-30.1,63.4-65.1,79.3l-4.1,1.8c2,4.5,7.4,6.4,11.8,4.3c1.5-0.7,2.8-1.3,3.5-1.7c41.4-21.8,57-56.3,62.7-82.1c4.9-22.5,3.5-41.8,2.4-50.2l151.1,69.6l-1.6,27.9c-5-0.9-10-2.3-15.4-4.3l-4.2-1.5c-1.7,4.6,0.7,9.8,5.4,11.4c0.3,0.1,0.6,0.2,0.8,0.3c19.2,6.1,35.7,5.4,54.1,0.8c-21.4,17.9-43,19.7-56.6,18.3c-1-0.1-2.5-0.3-4.1-0.6c-4.8-0.9-9.5,2.2-10.5,7l4.3,1c3,0.7,6.9,1.3,11.6,1.7l-45.3,54.5l-17.7-8.6c1.4-8.7-2.7-19.2-10.5-25.9c-5.6-4.7-21.2-14.1-46.1,1.1l-3.8,2.3c2.5,4.2,7.9,5.6,12.2,3.2c0.7-0.4,1.3-0.7,1.6-0.9c3.5-1.7,6.8-2.8,9.7-3.4l15.2,36.7L749.7,367l-15-8c-4.3-2.3-9.7-0.6-12,3.7l25.8,13.7l5.2-0.8l34.8-34.9l1-4.9l-15.1-36.5c5.2,0.7,8.9,2.9,11.2,4.9c6.8,5.8,8.9,14.8,6.9,19.8l2.2,5.7l24.1,11.8l5.4-1.2l52.2-62.9c14.2-1,32.1-6.6,44.9-17.4c5.6-4.5,12.7-12.1,17.3-23.6C921.3,242.3,902.9,245.8,888.1,244.7z"/>
  <path class="st0" d="M663.5,340.2c22.6-17.1,57.7-24.2,79.1-8.3c0.4,0.3,1.1,0.9,1.8,1.6c3.6,3.3,9.1,3.2,12.7-0.1l-3.1-3.2c-17.7-18.4-54.2-23.4-88-2.4c0.7-1.6,1.5-3.1,2.3-4.6c12.3-22.7,33.2-37.5,63.8-44.8c0.7-0.2,1.9-0.4,3.3-0.7c4.8-1,8.8-5.9,8.8-10.8v0l-4.4,0.8c-38,6.9-64.7,24.2-79.3,51.3c-12.7,23.5-14.3,50.2-14.3,70.9l4.5,4.5h21.2l-16.7-18.3c0.2-13,1.2-18.7,5.4-33.4L663.5,340.2z"/>
</svg>
